<?xml version="1.0" standalone="no"?>
<!DOCTYPE svg PUBLIC "-//W3C//DTD SVG 20010904//EN"
 "http://www.w3.org/TR/2001/REC-SVG-20010904/DTD/svg10.dtd">
<svg version="1.0" xmlns="http://www.w3.org/2000/svg"
 width="500.000000pt" height="500.000000pt" viewBox="0 0 500.000000 500.000000"
 preserveAspectRatio="xMidYMid meet">

<g transform="translate(0.000000,500.000000) scale(0.100000,-0.100000)"
fill="#000000" stroke="none">
<path d="M0 2500 l0 -2500 2500 0 2500 0 0 2500 0 2500 -2500 0 -2500 0 0
-2500z m2975 1510 c3 -5 1 -10 -4 -10 -6 0 -11 5 -11 10 0 6 2 10 4 10 3 0 8
-4 11 -10z m-135 -70 c0 -5 -4 -10 -10 -10 -5 0 -10 5 -10 10 0 6 5 10 10 10
6 0 10 -4 10 -10z m-165 -60 c107 -16 229 -49 305 -80 39 -16 70 -25 70 -19 0
5 4 9 10 9 5 0 7 -6 5 -12 -3 -8 18 -25 52 -43 198 -103 399 -310 504 -517 54
-108 49 -122 -7 -18 -54 102 -61 110 -85 110 -11 0 -19 5 -19 10 0 6 7 10 16
10 11 0 9 8 -12 35 -14 19 -35 35 -46 35 -15 0 -19 5 -15 19 6 22 -32 64 -54
59 -8 -2 -14 5 -14 14 0 41 -164 170 -312 246 -80 40 -95 45 -112 35 -14 -9
-22 -9 -27 -2 -4 6 -1 15 5 19 8 4 -6 12 -33 20 -24 7 -50 9 -56 5 -6 -4 -17
1 -24 11 -9 12 -26 18 -52 18 -22 0 -41 3 -44 7 -3 5 -51 14 -105 20 -133 15
-265 7 -423 -27 -14 -3 -21 -1 -18 5 3 5 29 12 56 16 28 4 50 10 50 13 0 12
313 14 385 2z m410 -30 c3 -5 1 -10 -4 -10 -6 0 -11 5 -11 10 0 6 2 10 4 10 3
0 8 -4 11 -10z m-744 -72 c11 -21 11 -22 -4 -9 -10 7 -17 17 -17 22 0 15 9 10
21 -13z m272 -3 c-5 -15 10 -21 69 -30 41 -6 46 -5 51 15 7 27 29 17 25 -11
-3 -17 16 -26 132 -65 117 -39 194 -74 329 -150 42 -24 87 -61 179 -149 72
-69 182 -202 182 -221 0 -5 -7 0 -16 11 -8 11 -20 20 -27 20 -7 0 -11 8 -9 16
1 9 -35 56 -81 104 -66 70 -86 86 -99 79 -15 -8 -11 -16 28 -63 62 -74 87
-111 76 -111 -5 0 -23 20 -41 45 -58 81 -142 164 -236 235 -51 39 -96 70 -99
70 -3 0 -21 11 -40 24 -60 40 -202 95 -294 112 -48 9 -140 18 -205 19 -135 3
-172 15 -47 15 46 0 80 3 76 7 -3 4 -52 10 -109 14 l-102 7 121 -2 c88 -1 121
1 117 9 -2 7 3 12 11 12 8 0 12 -6 9 -12z m417 -95 c0 -5 -4 -10 -9 -10 -6 0
-13 5 -16 10 -3 6 1 10 9 10 9 0 16 -4 16 -10z m500 -170 c0 -5 -4 -10 -10
-10 -5 0 -10 5 -10 10 0 6 5 10 10 10 6 0 10 -4 10 -10z m100 -250 c0 -5 -2
-10 -4 -10 -3 0 -8 5 -11 10 -3 6 -1 10 4 10 6 0 11 -4 11 -10z m-546 -244
c43 -18 50 -41 31 -96 -34 -97 -227 -321 -344 -401 -28 -19 -51 -37 -51 -41 0
-5 20 -8 44 -8 48 0 190 -29 182 -38 -3 -3 -45 1 -94 8 -109 15 -168 17 -209
7 -50 -13 -40 8 13 28 150 57 453 395 442 492 -3 27 -6 28 -63 31 -109 6 -298
-57 -387 -129 -26 -20 -38 -25 -38 -16 0 44 207 143 348 167 72 12 90 11 126
-4z m-1333 -36 c45 -25 60 -104 38 -198 -18 -75 -32 -76 -23 -2 19 154 -5 207
-79 177 -92 -39 -217 -259 -179 -315 6 -8 42 -16 93 -21 77 -7 129 -25 129
-43 0 -36 156 92 178 146 8 20 18 34 23 31 4 -3 4 -17 -1 -31 -17 -45 -11 -49
19 -14 l29 35 6 -25 c3 -14 7 -36 8 -49 5 -42 26 -34 62 22 40 62 62 75 85 51
15 -15 14 -16 -6 -10 -17 5 -26 1 -39 -19 -9 -14 -14 -28 -11 -32 4 -3 12 6
18 21 14 31 29 34 29 7 0 -64 39 -68 76 -8 29 45 43 59 56 51 13 -8 9 -34 -4
-32 -15 4 -33 -45 -25 -66 9 -23 50 -20 74 7 16 16 22 42 28 102 3 44 11 97
16 118 11 43 33 51 25 10 -16 -88 -31 -253 -22 -253 3 0 19 27 37 60 17 33 36
60 40 60 13 0 10 -12 -6 -34 -19 -25 -19 -82 0 -136 11 -31 12 -41 2 -38 -6 3
-19 27 -28 54 l-16 49 -18 -48 c-10 -26 -22 -47 -26 -47 -5 0 -9 23 -9 51 l0
50 -26 -20 c-34 -27 -69 -27 -87 -1 -13 18 -18 19 -42 8 -25 -11 -29 -10 -47
12 -16 20 -21 21 -29 9 -5 -7 -9 -18 -9 -23 0 -4 -11 -6 -25 -4 -14 3 -28 1
-31 -3 -3 -5 -14 -9 -24 -9 -22 0 -40 27 -41 62 0 22 -1 22 -12 4 -31 -48 -46
-61 -56 -47 -6 10 -25 0 -80 -45 -66 -54 -71 -61 -71 -97 0 -48 -19 -85 -65
-126 -38 -33 -82 -41 -91 -16 -12 31 9 71 71 131 63 60 64 62 45 79 -13 11
-48 20 -107 27 -110 12 -127 25 -120 88 l6 45 -54 -52 c-55 -54 -123 -83 -191
-83 -74 0 -195 33 -352 97 -157 63 -172 67 -247 67 -65 1 -87 -3 -118 -21 -29
-17 -37 -19 -37 -8 0 8 19 25 43 37 35 19 57 23 132 22 96 -1 81 3 400 -108
162 -57 231 -61 316 -18 34 17 63 41 78 65 14 20 27 33 31 27 3 -5 18 15 33
46 45 91 141 182 195 184 7 0 22 -5 33 -10z m1509 -123 c0 -1 -7 -34 -15 -72
-19 -92 -21 -222 -2 -207 23 19 54 104 70 191 9 46 18 86 22 89 14 15 15 -13
1 -88 -17 -89 -21 -200 -7 -200 4 0 24 35 44 78 38 83 67 118 92 109 22 -9 19
-26 -4 -20 -14 4 -24 -3 -35 -26 -23 -43 -19 -52 5 -14 23 36 39 35 39 -3 0
-39 26 -40 68 -2 81 73 242 79 420 15 56 -20 148 -54 205 -74 208 -74 361 -51
430 65 12 19 23 30 25 23 12 -35 -89 -128 -169 -156 -87 -31 -230 -12 -392 51
-224 87 -280 104 -350 104 -74 0 -122 -16 -169 -55 -36 -30 -51 -31 -77 -4
l-19 21 -11 -21 c-7 -12 -20 -21 -29 -21 -11 0 -26 -17 -40 -45 -12 -25 -26
-45 -32 -45 -14 0 -30 35 -30 67 l-1 28 -16 -30 c-41 -78 -73 -77 -73 2 l0 45
-31 -26 c-37 -31 -64 -33 -79 -6 -14 26 -9 112 7 117 8 3 10 -11 6 -51 -5 -46
-3 -57 11 -62 30 -11 82 50 90 103 9 68 25 123 36 123 6 0 10 -1 10 -3z m-120
-43 c0 -16 -16 -19 -25 -4 -8 13 4 32 16 25 5 -4 9 -13 9 -21z m-1912 -432 c2
-7 -3 -12 -12 -12 -9 0 -16 7 -16 16 0 17 22 14 28 -4z m125 -86 c17 -4 18 -8
8 -20 -39 -46 220 -460 275 -439 12 5 15 2 11 -13 -4 -14 9 -31 53 -69 82 -69
250 -177 250 -162 0 2 -30 24 -67 49 -135 90 -285 252 -358 386 -20 37 -32 48
-45 45 -10 -3 -20 2 -24 12 -4 13 -2 16 9 11 20 -7 19 0 -10 72 -41 102 -27
94 24 -14 68 -142 127 -230 223 -331 182 -190 405 -315 615 -343 113 -16 333
-8 423 14 111 26 273 87 285 106 3 5 13 10 21 10 8 0 32 11 54 25 22 14 40 21
40 15 0 -13 -108 -85 -198 -131 -88 -45 -81 -49 24 -14 98 33 204 85 204 101
0 6 11 11 25 10 23 -1 24 -2 8 -15 -27 -21 -192 -98 -240 -112 -24 -7 -43 -16
-43 -21 0 -5 -3 -7 -7 -5 -5 3 -82 -10 -173 -29 -109 -23 -208 -37 -292 -41
-71 -3 -128 -10 -128 -15 0 -14 -28 -9 -34 7 -3 9 -18 15 -39 15 -49 0 -225
46 -309 81 -322 133 -576 401 -689 728 -24 69 -23 98 1 46 11 -24 19 -33 19
-22 1 26 36 18 36 -8 0 -14 -6 -19 -18 -17 -15 3 -17 -1 -12 -20 17 -57 58
-137 68 -131 6 3 7 1 3 -6 -9 -14 56 -118 125 -202 236 -284 570 -440 943
-439 129 1 140 13 21 24 -97 10 -113 12 -170 30 -33 10 -51 12 -56 5 -4 -7
-11 -6 -20 4 -8 7 -46 24 -84 37 -39 12 -103 37 -142 56 -40 18 -73 28 -73 23
0 -6 -10 -9 -22 -7 -16 2 -22 9 -21 23 1 14 -13 30 -47 53 -28 17 -57 32 -65
32 -9 0 -18 6 -20 13 -3 6 -47 55 -98 107 -134 138 -225 283 -283 454 -24 69
-32 116 -11 64 6 -14 19 -29 30 -32z m137 -10 c0 -3 -4 -8 -10 -11 -5 -3 -10
-1 -10 4 0 6 5 11 10 11 6 0 10 -2 10 -4z m658 -54 c-35 -4 -36 -19 -2 -32 37
-14 28 -44 -14 -48 -19 -2 -32 1 -32 8 0 7 8 9 19 5 30 -9 36 14 7 25 -46 17
-20 65 28 51 19 -5 18 -6 -6 -9z m743 8 c23 -13 26 -62 4 -80 -20 -16 -65 -4
-66 18 -2 32 2 47 19 60 19 15 19 15 43 2z m210 0 c23 -13 26 -62 4 -80 -20
-16 -65 -4 -66 18 -2 32 2 47 19 60 19 15 19 15 43 2z m222 -7 c11 -7 8 -58
-5 -71 -7 -7 -25 -12 -40 -12 -26 0 -28 3 -28 43 0 24 3 47 6 50 7 6 49 0 67
-10z m-1570 0 c-13 -2 -23 -8 -23 -13 0 -4 10 -11 23 -15 l22 -8 -22 -4 c-15
-3 -23 -12 -23 -24 0 -10 -4 -19 -10 -19 -5 0 -10 20 -10 45 0 44 0 45 33 44
23 -1 26 -3 10 -6z m207 -34 c12 -23 18 -44 14 -47 -4 -4 -9 -1 -11 6 -6 14
-49 16 -58 2 -3 -5 -10 -10 -15 -10 -6 0 0 20 12 45 12 25 25 45 30 45 4 0 17
-18 28 -41z m388 34 c-13 -3 -18 -15 -18 -44 0 -21 -4 -39 -10 -39 -5 0 -10
18 -10 39 0 29 -5 41 -17 44 -10 3 2 5 27 5 25 0 37 -2 28 -5z m340 0 c-32 -5
-38 -23 -8 -23 11 0 20 -4 20 -10 0 -5 -9 -10 -19 -10 -12 0 -21 -8 -24 -22
-2 -13 -5 -2 -6 25 -1 47 -1 47 32 46 30 -2 30 -2 5 -6z m-1258 -44 c0 -5 -7
-9 -15 -9 -8 0 -15 7 -15 15 0 9 6 12 15 9 8 -4 15 -10 15 -15z m1083 -6 c-7
-2 -19 -2 -25 0 -7 3 -2 5 12 5 14 0 19 -2 13 -5z m-883 -103 c0 -5 -4 -10
-10 -10 -5 0 -10 5 -10 10 0 6 5 10 10 10 6 0 10 -4 10 -10z m-95 -259 c-9
-16 -25 -3 -18 15 4 10 9 12 15 6 6 -6 7 -15 3 -21z m485 -81 c0 -5 -4 -10
-10 -10 -5 0 -10 5 -10 10 0 6 5 10 10 10 6 0 10 -4 10 -10z m-110 -60 c0 -5
-7 -7 -15 -4 -8 4 -12 10 -9 15 6 11 24 2 24 -11z m100 -51 c0 -11 -27 -12
-34 0 -3 4 -3 11 0 14 8 8 34 -3 34 -14z m225 11 c3 -5 1 -10 -4 -10 -6 0 -11
5 -11 10 0 6 2 10 4 10 3 0 8 -4 11 -10z m685 -50 c-20 -12 -32 -2 -17 15 8 8
16 10 22 4 6 -7 5 -13 -5 -19z m-802 -22 c-3 -7 -11 -13 -18 -13 -7 0 -15 6
-17 13 -3 7 4 12 17 12 13 0 20 -5 18 -12z m692 3 c0 -14 -18 -23 -31 -15 -8
4 -7 9 2 15 18 11 29 11 29 0z m-119 -44 c-13 -13 -26 -3 -16 12 3 6 11 8 17
5 6 -4 6 -10 -1 -17z"/>
<path d="M3090 3587 c0 -3 28 -25 63 -50 34 -24 85 -65 113 -91 43 -38 53 -43
58 -29 4 9 3 19 -2 22 -4 3 -37 27 -73 52 -70 50 -159 104 -159 96z"/>
<path d="M1673 2478 c-45 -47 -73 -86 -73 -102 0 -14 44 -4 72 16 42 29 89
138 60 138 -4 0 -31 -24 -59 -52z"/>
<path d="M2820 1501 c-47 -15 -80 -30 -74 -34 12 -7 102 21 150 47 40 21 23
18 -76 -13z"/>
<path d="M2595 1459 c-102 -13 -101 -17 1 -18 70 -1 94 3 104 14 15 17 7 18
-105 4z"/>
<path d="M2845 2209 c-5 -14 -1 -27 9 -37 15 -15 17 -15 32 0 20 20 10 58 -16
58 -10 0 -22 -10 -25 -21z"/>
<path d="M3055 2209 c-5 -14 -1 -27 9 -37 15 -15 17 -15 32 0 20 20 10 58 -16
58 -10 0 -22 -10 -25 -21z"/>
<path d="M3270 2195 c0 -38 10 -44 34 -19 19 19 20 26 4 42 -23 23 -38 13 -38
-23z"/>
<path d="M1925 2210 c-8 -13 -1 -24 14 -19 6 3 7 10 2 18 -6 10 -10 10 -16 1z"/>
</g>
</svg>
